<?xml version="1.0" standalone="no"?>
<!DOCTYPE svg PUBLIC "-//W3C//DTD SVG 20010904//EN"
 "http://www.w3.org/TR/2001/REC-SVG-20010904/DTD/svg10.dtd">
<svg version="1.0" xmlns="http://www.w3.org/2000/svg"
 width="591.000000pt" height="591.000000pt" viewBox="0 0 591.000000 591.000000"
 preserveAspectRatio="xMidYMid meet">
<metadata>
Created by potrace 1.11, written by Peter Selinger 2001-2013
</metadata>
<g transform="translate(0.000000,591.000000) scale(0.100000,-0.100000)"
fill="#000000" stroke="none">
<path d="M2745 5804 c-256 -19 -405 -43 -625 -100 -772 -201 -1445 -743 -1804
-1454 -183 -361 -269 -674 -306 -1115 -13 -162 -13 -1572 0 -1580 6 -4 287 -3
625 1 614 7 615 7 619 28 3 12 12 71 21 131 98 657 382 1245 761 1577 121 106
209 164 359 238 417 206 857 219 1220 37 217 -108 413 -320 499 -540 57 -144
69 -210 69 -382 0 -187 -16 -265 -85 -405 -34 -69 -59 -102 -133 -176 -76 -76
-105 -97 -185 -137 -93 -45 -201 -80 -290 -92 l-45 -6 -22 58 c-50 129 -176
244 -314 288 -331 104 -662 -131 -660 -470 0 -44 4 -96 9 -115 l8 -35 944 0
945 0 60 120 c347 693 239 1428 -275 1873 -228 197 -462 310 -795 384 -88 20
-129 22 -330 22 -200 0 -243 -3 -330 -22 -465 -103 -887 -397 -1225 -855 -140
-189 -322 -514 -378 -674 l-20 -58 -1 92 c-1 111 23 428 45 578 23 166 62 330
100 428 19 48 50 129 70 180 99 253 271 503 459 667 252 218 551 340 915 372
l135 12 -4 49 c-5 73 16 223 44 323 72 247 229 454 431 567 77 43 227 97 270
97 88 1 -148 52 -345 75 -127 15 -357 25 -436 19z"/>
<path d="M4452 5403 c103 -206 148 -382 148 -582 0 -150 -37 -261 -196 -591
l-95 -194 89 -91 c224 -228 330 -416 395 -700 20 -86 21 -128 26 -890 l6 -800
530 0 530 0 3 730 c3 764 -2 918 -39 1115 -137 730 -639 1472 -1323 1956 -43
30 -76 52 -74 47z"/>
<path d="M435 1400 c-267 -19 -369 -82 -403 -247 -7 -30 -14 -251 -18 -532
l-7 -481 189 2 189 3 5 200 c5 209 10 233 53 257 25 14 327 24 413 13 99 -12
98 -11 104 -257 l5 -213 184 -3 c102 -1 188 1 192 5 4 5 11 224 15 489 7 472
7 482 -14 550 -35 115 -102 168 -250 199 -81 18 -497 27 -657 15z m521 -243
c22 -26 24 -36 24 -145 0 -134 -8 -155 -68 -172 -20 -5 -124 -10 -230 -10
-281 0 -287 4 -287 180 0 104 2 121 20 140 11 12 29 26 40 31 11 4 123 7 248
6 l229 -2 24 -28z"/>
<path d="M3398 1400 c-263 -18 -377 -92 -407 -265 -5 -33 -11 -215 -13 -405
-3 -395 1 -426 70 -497 44 -45 84 -66 173 -90 56 -16 113 -18 464 -18 353 0
408 2 465 18 140 38 186 101 197 270 l6 95 -74 7 c-61 5 -122 4 -305 -4 -7 -1
-13 -26 -16 -61 -3 -45 -10 -66 -26 -83 -22 -21 -29 -22 -252 -22 -332 0 -313
-26 -304 420 6 341 10 361 66 395 30 18 50 20 245 20 134 0 221 -4 236 -11 33
-15 47 -49 47 -110 l0 -49 193 2 192 3 -1 90 c-1 181 -52 243 -227 279 -91 19
-546 29 -729 16z"/>
<path d="M1537 1363 c-3 -10 -7 -288 -9 -618 l-3 -600 190 0 190 0 5 200 c7
284 -1 275 252 275 110 0 186 -4 202 -11 44 -20 51 -57 51 -269 l0 -195 205 0
205 0 0 175 c0 143 -4 185 -19 232 -24 73 -67 125 -129 153 l-48 23 51 17
c100 33 143 94 155 220 8 92 -9 233 -34 284 -23 45 -74 79 -161 107 -49 16
-108 19 -577 22 -496 3 -522 2 -526 -15z m829 -205 c39 -22 44 -38 44 -171 0
-107 0 -109 -30 -138 l-30 -30 -196 3 -196 3 -24 28 c-22 26 -24 36 -24 137 0
120 10 154 49 169 48 18 65 20 221 17 123 -1 161 -5 186 -18z"/>
<path d="M4507 1353 c-5 -28 -10 -454 -11 -953 l-1 -255 190 0 190 0 5 215 c6
236 12 262 63 280 17 6 125 10 258 10 226 0 228 0 256 -24 l28 -24 5 -229 5
-228 186 -3 c151 -2 188 0 192 11 3 8 9 287 13 621 l7 606 -190 0 c-153 0
-192 -3 -196 -14 -3 -7 -6 -102 -7 -211 -1 -211 -7 -241 -53 -267 -25 -14
-378 -25 -453 -13 -25 3 -57 17 -72 30 l-27 23 -3 226 -3 226 -189 0 -188 0
-5 -27z"/>
</g>
</svg>
